<?xml version="1.0" standalone="no"?>
<!DOCTYPE svg PUBLIC "-//W3C//DTD SVG 20010904//EN"
 "http://www.w3.org/TR/2001/REC-SVG-20010904/DTD/svg10.dtd">
<svg version="1.0" xmlns="http://www.w3.org/2000/svg"
 width="576.000000pt" height="576.000000pt" viewBox="0 0 576.000000 576.000000"
 preserveAspectRatio="xMidYMid meet">
<metadata>
Created by potrace 1.14, written by Peter Selinger 2001-2017
</metadata>
<g transform="translate(0.000000,576.000000) scale(0.100000,-0.100000)"
fill="#000000" stroke="none">
<path d="M516 4802 c-2 -1 -32 -4 -67 -6 -35 -3 -73 -6 -84 -9 -80 -20 -180
-80 -244 -149 -45 -48 -98 -154 -111 -223 -8 -44 -10 -469 -7 -1560 2 -825 6
-1509 8 -1520 47 -206 231 -361 439 -371 41 -2 76 -4 78 -4 5 -2 202 -1 210 1
4 1 10 1 13 1 9 -2 111 -3 249 -3 63 0 120 0 125 0 6 -1 28 0 50 0 22 1 47 0
55 0 16 -1 104 0 160 2 19 1 40 1 45 1 28 -2 251 -3 260 -1 6 1 13 1 16 1 10
-2 117 -2 247 -2 62 0 116 -2 121 -4 4 -3 13 -1 19 3 7 4 33 5 57 1 25 -4 45
-4 45 -1 0 3 27 6 60 6 33 0 60 -2 60 -5 0 -4 325 -3 340 1 3 1 8 1 11 1 9 -2
111 -3 249 -3 63 0 120 0 125 0 6 -1 28 0 50 0 22 1 47 0 55 0 16 -1 104 0
160 2 19 1 40 1 45 1 28 -2 251 -3 260 -1 6 1 13 1 16 1 10 -2 117 -2 247 -2
62 0 116 -2 121 -4 4 -3 13 -1 19 3 7 4 33 5 57 1 25 -4 45 -4 45 -1 0 3 27 6
60 6 33 0 60 -2 60 -5 0 -4 325 -3 340 1 3 1 8 1 11 1 19 -3 353 -4 399 -2 19
1 42 2 50 1 67 -3 263 0 271 4 5 4 9 2 9 -4 0 -7 8 -7 23 -2 22 9 102 32 123
37 23 4 120 72 157 110 56 56 103 142 122 220 14 63 16 209 13 1584 -3 1462
-4 1517 -22 1565 -72 189 -228 306 -424 321 -43 3 -80 8 -84 10 -4 2 -9 0 -13
-6 -4 -6 -10 -8 -15 -5 -5 3 -30 5 -57 5 -26 0 -57 0 -68 0 -11 0 -38 0 -60
-1 -22 0 -44 -1 -50 0 -85 2 -258 2 -260 -1 -2 -2 -33 -1 -69 2 -36 3 -72 3
-80 0 -8 -3 -56 -3 -106 0 -49 3 -90 3 -90 0 0 -3 -27 -5 -60 -5 -33 0 -60 2
-60 5 0 6 -109 4 -116 -2 -2 -3 -24 -2 -49 2 -24 4 -49 4 -55 0 -6 -3 -32 -4
-58 -1 -26 3 -81 4 -122 1 -41 -3 -96 -2 -122 1 -26 3 -52 2 -58 -1 -6 -4 -31
-4 -55 0 -25 4 -45 4 -45 1 0 -3 -27 -6 -60 -6 -33 0 -60 2 -60 5 0 3 -30 4
-67 3 -147 -5 -323 -4 -331 1 -4 2 -14 1 -20 -3 -7 -4 -33 -5 -57 -1 -25 4
-45 4 -45 1 0 -3 -27 -6 -60 -6 -33 0 -60 2 -60 5 0 3 -81 5 -180 5 -99 0
-180 -2 -180 -5 0 -3 -27 -5 -60 -5 -33 0 -60 2 -60 5 0 6 -109 4 -116 -2 -2
-3 -24 -2 -49 2 -24 4 -50 3 -57 -1 -6 -4 -15 -6 -19 -3 -7 4 -232 7 -254 3
-5 -1 -13 -1 -16 -1 -9 2 -111 3 -249 3 -63 0 -119 0 -125 0 -5 1 -28 0 -50 0
-22 -1 -47 0 -55 0 -16 1 -104 0 -160 -2 -19 -1 -39 -1 -45 -1 -51 3 -258 3
-260 0 -2 -2 -33 -1 -69 2 -36 3 -72 3 -80 0 -8 -3 -56 -3 -106 0 -51 3 -93 4
-94 2z m411 -645 c71 1 130 3 133 4 26 5 131 -6 155 -17 53 -25 68 -74 65
-209 -1 -27 -1 -57 -1 -65 1 -8 1 -33 0 -55 0 -22 0 -47 0 -55 2 -42 0 -129
-3 -147 -11 -56 -66 -94 -133 -94 -102 1 -127 2 -135 7 -4 3 -8 2 -8 -3 0 -4
-27 -8 -60 -8 -33 0 -60 2 -60 5 0 3 -33 4 -72 3 -80 -2 -124 13 -148 49 -19
30 -26 196 -18 428 4 96 21 132 73 149 37 12 79 18 82 11 2 -3 60 -4 130 -3z
m845 -1 c4 3 54 5 98 3 8 0 38 0 65 0 52 1 62 1 130 0 35 0 62 -2 101 -7 23
-4 62 -54 68 -87 7 -35 9 -238 4 -385 -3 -66 -8 -91 -23 -112 -23 -31 -67 -49
-116 -48 -19 1 -99 1 -179 1 -249 -1 -276 5 -304 64 -12 25 -22 121 -16 160 0
6 0 64 0 130 -2 154 -2 154 5 191 4 25 75 111 75 91 0 -3 10 -3 23 2 12 5 32
5 43 0 12 -4 24 -6 26 -3z m1068 3 c0 3 27 6 60 6 33 0 60 -2 60 -5 0 -3 33
-4 72 -3 80 2 124 -13 148 -49 19 -30 26 -196 18 -428 -3 -87 -20 -130 -58
-145 -26 -11 -100 -23 -100 -16 0 6 -249 5 -256 -1 -1 -2 -37 -1 -79 3 -68 5
-80 9 -108 37 -26 27 -32 40 -34 84 -2 55 -3 132 -2 158 0 8 0 33 0 55 -1 22
-1 47 0 55 0 8 0 42 -1 75 0 33 1 70 4 81 13 59 68 96 136 92 22 -1 42 1 45 3
3 3 25 3 50 -1 25 -4 45 -4 45 -1z m1217 -4 c40 -6 91 -43 95 -69 5 -39 7 -66
7 -101 1 -68 1 -78 0 -130 0 -27 0 -57 0 -65 1 -8 1 -33 0 -55 0 -22 0 -46 0
-52 4 -75 0 -87 -34 -123 -39 -41 -51 -43 -253 -40 -68 1 -125 0 -127 -2 -2
-2 -38 -1 -80 3 -68 5 -80 9 -108 37 -35 35 -36 43 -37 247 -1 217 4 278 25
307 24 32 68 50 118 46 20 -1 38 0 41 2 6 7 302 2 353 -5z m931 2 c55 -2 66
-7 94 -34 28 -28 32 -40 37 -108 4 -42 3 -79 -1 -81 -5 -3 -6 -9 -4 -13 6 -10
8 -128 4 -241 -3 -87 -20 -130 -58 -145 -26 -11 -100 -23 -100 -16 0 6 -249 5
-256 -1 -1 -2 -37 -1 -79 3 -68 5 -80 9 -108 37 -26 26 -32 41 -34 84 -3 44
-4 137 -2 191 0 6 0 42 -1 79 -1 37 0 71 3 75 2 4 1 17 -3 28 -10 29 17 97 48
120 21 16 46 20 116 22 49 2 90 4 92 5 3 3 156 0 252 -5z m-3463 -957 c9 3 50
3 92 -1 71 -6 79 -9 108 -40 28 -31 32 -43 34 -99 1 -35 4 -67 7 -71 2 -4 0
-10 -6 -14 -6 -4 -8 -10 -6 -14 3 -4 5 -57 5 -117 0 -60 1 -126 1 -147 1 -67
-36 -121 -94 -133 -39 -9 -146 -9 -146 -1 0 5 -5 5 -10 2 -11 -7 -262 -7 -296
-1 -31 6 -61 27 -74 51 -15 28 -29 135 -18 141 4 3 6 9 4 13 -3 4 -5 50 -5
102 -1 52 -1 122 -1 157 -2 133 30 166 164 169 49 1 90 4 92 5 1 2 32 1 68 -2
36 -3 73 -3 81 0z m891 1 c32 -1 89 -1 125 -1 92 -1 109 -5 144 -40 28 -29 30
-35 33 -123 2 -50 2 -114 2 -142 -1 -27 -2 -57 -1 -65 9 -168 -10 -236 -74
-260 -27 -10 -228 -16 -243 -6 -4 2 -14 1 -20 -3 -7 -4 -33 -5 -58 -1 -24 4
-47 4 -49 0 -6 -9 -114 6 -140 20 -48 26 -54 55 -55 265 0 61 0 141 0 179 -1
138 29 170 164 173 49 1 91 4 94 7 2 3 8 4 11 1 4 -2 34 -4 67 -4z m876 -5 c4
3 54 5 98 3 8 0 38 0 65 0 124 3 154 -3 188 -37 31 -31 32 -36 35 -125 2 -50
2 -114 2 -142 -1 -27 -2 -57 -1 -65 3 -48 0 -149 -5 -175 -11 -62 -60 -95
-137 -95 -23 1 -72 -1 -110 -2 -37 -2 -67 -1 -67 2 0 6 -119 4 -126 -2 -7 -8
-117 10 -139 22 -50 27 -55 52 -54 300 0 80 0 162 -1 183 -1 49 23 99 58 118
15 9 52 17 82 18 30 2 57 4 59 6 1 2 13 0 26 -5 13 -5 25 -7 27 -4z m960 0 c4
3 54 5 98 3 8 0 38 0 65 0 124 3 154 -3 188 -37 31 -31 32 -36 35 -125 2 -50
2 -114 2 -142 -1 -27 -2 -57 -1 -65 12 -224 -20 -274 -176 -269 -40 1 -75 0
-78 -2 -2 -3 -33 -2 -69 1 -36 3 -73 3 -81 0 -9 -3 -50 -3 -92 1 -71 6 -79 9
-108 40 -28 31 -32 43 -34 99 -1 35 -4 67 -7 71 -2 4 0 10 6 14 6 4 8 10 6 14
-3 4 -5 57 -5 117 0 60 -1 126 -1 147 -1 49 23 99 58 118 15 9 52 17 82 18 30
2 57 4 59 6 1 2 13 0 26 -5 13 -5 25 -7 27 -4z m-3325 -959 c71 1 130 3 133 4
26 5 131 -6 155 -17 57 -27 65 -59 65 -269 1 -318 -4 -333 -117 -354 -24 -5
-43 -6 -43 -2 0 6 -249 5 -256 -1 -1 -2 -37 -1 -79 3 -68 5 -80 9 -108 37 -35
35 -36 43 -37 247 -1 217 4 278 25 307 20 27 55 44 105 50 14 2 26 1 27 -2 2
-3 60 -4 130 -3z m845 -2 c2 2 19 4 38 5 19 0 60 1 90 1 30 1 62 1 70 0 8 0
33 -1 55 0 22 0 45 1 50 0 85 -2 258 -2 260 1 2 2 33 1 69 -2 36 -3 72 -3 80
0 8 3 56 3 106 0 49 -3 90 -3 90 0 0 3 27 5 60 5 33 0 60 -2 60 -5 0 -4 107
-4 120 1 3 1 8 1 11 1 3 -1 24 -1 45 -1 62 -1 131 -2 242 -4 56 -1 102 0 102
3 0 3 27 5 60 5 33 0 60 -2 60 -5 0 -6 109 -4 116 2 2 3 24 2 49 -2 24 -4 50
-3 57 1 6 4 15 6 18 4 8 -5 71 -7 200 -6 190 2 207 -1 242 -36 28 -28 32 -40
37 -108 4 -42 3 -79 -1 -81 -5 -3 -6 -9 -4 -13 6 -10 8 -128 4 -241 -2 -66 -8
-91 -23 -112 -23 -31 -67 -49 -116 -48 -19 0 -90 1 -158 1 -69 0 -128 2 -133
5 -4 3 -8 2 -8 -3 0 -4 -27 -8 -60 -8 -33 0 -60 2 -60 5 0 4 -107 4 -120 -1
-3 -1 -8 -1 -11 -1 -3 1 -24 1 -45 1 -62 1 -131 2 -242 4 -56 1 -102 0 -102
-3 0 -3 -27 -5 -60 -5 -33 0 -60 2 -60 5 0 6 -109 4 -116 -2 -2 -3 -24 -2 -49
2 -24 4 -49 4 -55 0 -6 -3 -32 -4 -58 -1 -26 3 -81 4 -122 1 -41 -3 -96 -2
-122 1 -26 3 -52 2 -58 -1 -6 -4 -31 -4 -55 0 -25 4 -45 4 -45 1 0 -3 -27 -6
-60 -6 -33 0 -60 2 -60 5 0 3 -26 3 -57 0 -32 -3 -107 -3 -166 0 -60 3 -110 3
-112 0 -2 -3 -38 -3 -80 1 -68 5 -80 9 -108 37 -35 35 -38 52 -36 242 1 119 1
104 -1 190 -1 36 3 76 8 90 10 24 72 91 72 77 0 -3 10 -3 23 2 12 5 32 5 43 0
12 -4 24 -6 26 -4z m3216 2 c55 -2 66 -7 94 -34 28 -28 32 -40 37 -108 4 -42
3 -79 -1 -81 -5 -3 -6 -9 -4 -13 6 -10 8 -128 4 -241 -3 -87 -20 -130 -58
-145 -26 -11 -100 -23 -100 -16 0 6 -249 5 -256 -1 -1 -2 -37 -1 -79 3 -68 5
-80 9 -108 37 -36 36 -37 43 -36 282 0 80 0 160 -1 179 -1 49 17 93 48 116 21
16 46 20 116 22 49 2 90 4 92 5 3 3 156 0 252 -5z"/>
</g>
</svg>
